<?xml version="1.0" encoding="UTF-8"?>
<svg width="23px" height="28px" viewBox="0 0 23 28" version="1.1" xmlns="http://www.w3.org/2000/svg" xmlns:xlink="http://www.w3.org/1999/xlink">
    <!-- Generator: Sketch 50.2 (55047) - http://www.bohemiancoding.com/sketch -->
    <title>定位</title>
    <desc>Created with Sketch.</desc>
    <defs></defs>
    <g id="Page-1" stroke="none" stroke-width="1" fill="none" fill-rule="evenodd">
        <g id="个人中心--copy" transform="translate(-606.000000, -267.000000)">
            <g id="Group-5" transform="translate(60.000000, 255.000000)">
                <g id="定位" transform="translate(546.000000, 12.000000)">
                    <path d="M11.4999998,3.12878777e-15 C5.15902337,3.12878777e-15 2.90835132e-10,5.20733617 0,11.6108253 C0.000277223152,13.8028957 0.620169385,15.949385 1.78688963,17.7982554 L1.95441054,18.0863342 C3.03398969,19.7427868 8.57769069,28 11.4999998,28 C13.7056917,28 17.5338545,23.1433684 20.5368218,18.7658242 C22.1327868,16.7288962 23.0007098,14.2077675 22.9999996,11.6108253 C22.9999996,5.20733617 17.8409762,0 11.4999998,3.12878777e-15 Z" id="Path" fill="#52C9C2"></path>
                    <path d="M11.4999998,26.631626 C10.5010788,26.631626 8.47841905,24.5461865 6.48678164,22.0411541 C5.3761801,20.6445985 4.27178303,19.1227913 3.36282702,17.7544174 C3.36282702,17.7544174 2.78270834,16.8713934 2.53142698,16.3891747 C1.75626787,14.918046 1.35142996,13.2770776 1.35257618,11.6108253 C1.35257618,5.96197719 5.90356072,1.36837397 11.4999998,1.36837397 C17.0964388,1.36837397 21.6474234,5.96197719 21.6474234,11.6108253 C21.649219,13.2866624 21.2399586,14.9368832 20.4561636,16.414225 C20.1514393,16.9893341 19.7941643,17.5344585 19.3889934,18.0424961 C18.3435389,19.5549094 17.3384135,20.9201521 16.4077418,22.094386 C14.1586186,24.9219414 12.346911,26.631626 11.4999998,26.631626 Z" id="Path" fill="#52C9C2"></path>
                    <path d="M11,16 C8.24327628,16 6,13.7590951 6,11.0015286 C6,8.24396209 8.24327628,6 11,6 C13.7567237,6 16,8.24396209 16,11.0015286 C16,13.7590951 13.7567237,16 11,16 Z" id="Path" fill="#FFFFFF"></path>
                    <path d="M11,7.33292571 C8.97982885,7.33292571 7.33557457,8.97768267 7.33557457,11.0015286 C7.33557457,13.0259536 8.97619372,14.6670743 11,14.6670743 C13.0238063,14.6670743 14.6644254,13.0259536 14.6644254,11.0015286 C14.6644254,8.97768267 13.0201711,7.33292571 11,7.33292571 Z" id="Path" fill="#FFFFFF"></path>
                </g>
            </g>
        </g>
    </g>
</svg>