<?xml version="1.0" encoding="UTF-8"?>
<svg width="28px" height="24px" viewBox="0 0 28 24" version="1.1" xmlns="http://www.w3.org/2000/svg" xmlns:xlink="http://www.w3.org/1999/xlink">
    <!-- Generator: Sketch 50.2 (55047) - http://www.bohemiancoding.com/sketch -->
    <title>工作经历</title>
    <desc>Created with Sketch.</desc>
    <defs></defs>
    <g id="Page-1" stroke="none" stroke-width="1" fill="none" fill-rule="evenodd">
        <g id="个人中心--copy" transform="translate(-60.000000, -328.000000)" fill="#52C9C2" fill-rule="nonzero">
            <g id="Group-5" transform="translate(60.000000, 255.000000)">
                <g id="工作经历" transform="translate(0.000000, 73.000000)">
                    <path d="M25.7816955,3.60441478 L19.1164863,3.60441478 L19.1164863,1.5274089 C19.1164863,0.685597995 18.3774442,0 17.4709786,0 L10.5301716,2.70569115e-08 C9.62255585,2.70569115e-08 8.88351375,0.685598022 8.88351375,1.52740893 L8.88351375,3.60441481 L2.21833259,3.60441478 C0.993010677,3.60441478 0,4.53501952 0,5.68250047 L0,21.9207514 C0,23.0682601 0.993010677,24 2.21833259,24 L25.7816955,24 C27.0081395,24 28,23.0682878 28,21.9207514 L28,5.68250047 C28,4.53501952 27.0081395,3.60441478 25.7816955,3.60441478 Z M10.0404973,1.52743661 C10.0404973,1.27680931 10.2602966,1.07338923 10.5301716,1.07338923 L17.4709786,1.07338923 C17.7397314,1.07338923 17.9595027,1.27680934 17.9595027,1.52743661 L17.9595027,3.54820916 L10.0404973,3.54820916 L10.0404973,1.52743661 Z M27.4898466,14.4625129 L17.4368094,14.4625129 L17.4368094,14.8783515 C17.4368094,15.1593243 17.1919863,15.3863618 16.8890643,15.3863618 L11.2202603,15.3863618 C10.9173663,15.3863618 10.6725151,15.1593243 10.6725151,14.8783515 L10.6725151,14.4625129 L0.245973324,14.4625129 L0.245973324,13.5105334 L10.6725152,13.5105334 L10.6725152,13.0980726 C10.6725152,12.8159646 10.9173663,12.5889271 11.2202603,12.5889271 L16.8890644,12.5889271 C17.1919583,12.5889271 17.4368095,12.8159646 17.4368095,13.0980726 L17.4368095,13.5105334 L27.4898467,13.5105334 L27.4898466,14.4625129 Z" id="Shape"></path>
                </g>
            </g>
        </g>
    </g>
</svg>