<?xml version="1.0" encoding="UTF-8"?>
<svg width="28px" height="28px" viewBox="0 0 28 28" version="1.1" xmlns="http://www.w3.org/2000/svg" xmlns:xlink="http://www.w3.org/1999/xlink">
    <!-- Generator: Sketch 50.2 (55047) - http://www.bohemiancoding.com/sketch -->
    <title>运营管理_服务分组管理</title>
    <desc>Created with Sketch.</desc>
    <defs></defs>
    <g id="Page-1" stroke="none" stroke-width="1" fill="none" fill-rule="evenodd">
        <g id="个人中心--copy" transform="translate(-60.000000, -382.000000)" fill="#52C9C2" fill-rule="nonzero">
            <g id="Group-5" transform="translate(60.000000, 255.000000)">
                <g id="运营管理_服务分组管理" transform="translate(0.000000, 127.000000)">
                    <path d="M26.2535789,17.5012667 L24.5578382,17.5012667 L24.5578382,13.1267945 C24.5578382,12.7653517 24.2639549,12.4714682 23.9025121,12.4714682 L14.6570096,12.4714682 L14.6570096,10.5021112 L17.5012599,10.5021112 C18.4673592,10.5021112 19.2510481,9.71842201 19.2510481,8.75232235 L19.2510481,1.74978888 C19.2510481,0.783689227 18.4673592,0 17.5012599,0 L10.5021072,0 C9.53600788,0 8.75231895,0.783689227 8.75231895,1.74978888 L8.75231895,8.74894438 C8.75231895,9.71504403 9.53600788,10.4987333 10.5021072,10.4987333 L13.3463575,10.4987333 L13.3463575,12.4680902 L4.10423293,12.4680902 C3.7427902,12.4680902 3.44890685,12.7619737 3.44890685,13.1234166 L3.44890685,17.4978888 L1.7497882,17.4978888 C0.783688922,17.4978888 0,18.281578 0,19.2476776 L0,26.2468332 C0,27.2129328 0.783688922,27.996622 1.7497882,27.996622 L8.74894098,27.996622 C9.71504026,27.996622 10.4987292,27.2129328 10.4987292,26.2468332 L10.4987292,19.2510556 C10.4987292,18.284956 9.71504026,17.5012667 8.74894098,17.5012667 L4.75955901,17.5012667 L4.75955901,13.7821209 L23.247186,13.7821209 L23.247186,17.5012667 L19.2510481,17.5012667 C18.2849489,17.5012667 17.5012599,18.284956 17.5012599,19.2510556 L17.5012599,26.2502111 C17.5012599,27.2163108 18.2849489,28 19.2510481,28 L26.2502009,28 C27.2163002,28 27.9999891,27.2163108 27.9999891,26.2502111 L27.9999891,19.2510556 C28.0033671,18.284956 27.2196782,17.5012667 26.2535789,17.5012667 Z" id="Shape"></path>
                </g>
            </g>
        </g>
    </g>
</svg>