<?xml version="1.0" encoding="UTF-8"?>
<svg width="37px" height="35px" viewBox="0 0 37 35" version="1.1" xmlns="http://www.w3.org/2000/svg" xmlns:xlink="http://www.w3.org/1999/xlink">
    <!-- Generator: Sketch 50.2 (55047) - http://www.bohemiancoding.com/sketch -->
    <title>Shape</title>
    <desc>Created with Sketch.</desc>
    <defs></defs>
    <g id="Page-1" stroke="none" stroke-width="1" fill="none" fill-rule="evenodd">
        <g id="搜索对象-copy" transform="translate(-685.000000, -1240.000000)" fill="#94DCD7" fill-rule="nonzero">
            <g id="回到顶部" transform="translate(666.000000, 1220.000000)">
                <g id="返回顶部-(4)" transform="translate(19.000000, 20.000000)">
                    <g id="下载">
                        <path d="M13.1994169,2.77990255 L23.7712841,2.77990255 L23.7712841,5.62139651 L13.1994169,5.62139651 L13.1994169,2.77990255 Z M13.1994169,0 L23.7712841,0 L23.7712841,1.48222648 L13.1994169,1.48222648 L13.1994169,0 Z M33.8339704,23.7229771 L32.5783311,30.798156 L4.3900023,30.798156 L3.1355838,23.7229771 L0,23.7229771 L0,35 L37,35 L37,23.7229771 L33.8339704,23.7229771 Z M33.0572142,11.1197221 L23.7712841,11.1197221 L23.7712841,7.04326337 L13.1994169,7.04326337 L13.1994169,11.151675 L4.0309417,11.151675 L18.4542573,27.0909101 L33.0572142,11.1197221 Z" id="Shape"></path>
                    </g>
                </g>
            </g>
        </g>
    </g>
</svg>