<?xml version="1.0" encoding="UTF-8"?>
<svg width="38px" height="36px" viewBox="0 0 38 36" version="1.1" xmlns="http://www.w3.org/2000/svg" xmlns:xlink="http://www.w3.org/1999/xlink">
    <!-- Generator: Sketch 50.2 (55047) - http://www.bohemiancoding.com/sketch -->
    <title>Shape</title>
    <desc>Created with Sketch.</desc>
    <defs></defs>
    <g id="Page-1" stroke="none" stroke-width="1" fill="none" fill-rule="evenodd">
        <g id="搜索对象-copy" transform="translate(-685.000000, -1240.000000)" fill="#73D2CC" fill-rule="nonzero">
            <g id="回到顶部" transform="translate(666.000000, 1220.000000)">
                <g id="返回顶部-(4)" transform="translate(19.000000, 20.000000)">
                    <g id="下载">
                        <path d="M13.5561579,2.85503505 L24.4137513,2.85503505 L24.4137513,5.77332615 L13.5561579,5.77332615 L13.5561579,2.85503505 Z M13.5561579,0 L24.4137513,0 L24.4137513,1.52228666 L13.5561579,1.52228666 L13.5561579,0 Z M34.748402,24.3641386 L33.4588266,31.6305386 L4.50865101,31.6305386 L3.22032931,24.3641386 L0,24.3641386 L0,35.9459459 L38,35.9459459 L38,24.3641386 L34.748402,24.3641386 Z M33.9506525,11.4202551 L24.4137513,11.4202551 L24.4137513,7.23362184 L13.5561579,7.23362184 L13.5561579,11.4530716 L4.13988607,11.4530716 L18.953021,27.8230968 L33.9506525,11.4202551 Z" id="Shape"></path>
                    </g>
                </g>
            </g>
        </g>
    </g>
</svg>