<?xml version="1.0" standalone="no"?><!DOCTYPE svg PUBLIC "-//W3C//DTD SVG 1.1//EN" "http://www.w3.org/Graphics/SVG/1.1/DTD/svg11.dtd"><svg class="icon" width="200px" height="200.00px" viewBox="0 0 1024 1024" version="1.1" xmlns="http://www.w3.org/2000/svg"><path d="M962.24 932H932V572.18c0-33.9-27.12-60.18-60.54-60.18H752.6c-34.02 0-60.6 26.94-60.6 60.18V932h-60V92.42C632 58.94 604.88 32 571.46 32H452.54C418.58 32 392 59.06 392 92.42V932h-60V331.76C332 298.7 304.88 272 271.46 272H152.54C118.58 272 92 298.76 92 331.76V932H61.76C45.56 932 32 945.44 32 962c0 16.08 13.32 30 29.76 30h900.42c16.26 0 29.82-13.44 29.82-30 0-16.08-13.32-30-29.76-30z" fill="#999999" /></svg>