<?xml version="1.0" encoding="UTF-8"?>
<svg width="86px" height="86px" viewBox="0 0 86 86" version="1.1" xmlns="http://www.w3.org/2000/svg" xmlns:xlink="http://www.w3.org/1999/xlink">
    <!-- Generator: Sketch 50.2 (55047) - http://www.bohemiancoding.com/sketch -->
    <title>Shape</title>
    <desc>Created with Sketch.</desc>
    <defs></defs>
    <g id="Page-1" stroke="none" stroke-width="1" fill="none" fill-rule="evenodd">
        <g id="明细数据页弹窗4-copy" transform="translate(-332.000000, -444.000000)" fill="#3BD0A0" fill-rule="nonzero">
            <g id="对" transform="translate(332.000000, 410.000000)">
                <path d="M42.9999999,34 C19.2487185,34 0,53.2514339 0,77.0017491 C0,100.748566 19.2487185,120 43,120 C66.7512815,120 86,100.748566 86,77.0017491 C85.9999999,53.2514339 66.7512814,34 42.9999999,34 Z M68.9431674,60.3656335 L39.7305935,98.9177934 C38.8179199,100.119067 37.427848,100.87465 35.914916,100.986072 C35.7815253,100.996518 35.6516448,101 35.5217643,101 C34.1457335,101 32.8188465,100.467261 31.8324571,99.5027611 L15.5763371,83.6668486 C13.50176,81.6438352 13.4701674,78.3394638 15.5096418,76.2816308 C17.5491161,74.2203159 20.8803745,74.1959423 22.9549517,76.2119918 L34.9250162,87.8730452 L60.5255091,54.0841941 C62.2736299,51.7791426 65.5732958,51.3160431 67.9006134,53.0465727 C70.2209104,54.7875482 70.6912883,58.060582 68.9431674,60.3656335 Z" id="Shape"></path>
            </g>
        </g>
    </g>
</svg>