<?xml version="1.0" encoding="UTF-8"?>
<svg width="51px" height="45px" viewBox="0 0 51 45" version="1.1" xmlns="http://www.w3.org/2000/svg" xmlns:xlink="http://www.w3.org/1999/xlink">
    <!-- Generator: Sketch 50.2 (55047) - http://www.bohemiancoding.com/sketch -->
    <title>Shape</title>
    <desc>Created with Sketch.</desc>
    <defs></defs>
    <g id="Page-1" stroke="none" stroke-width="1" fill="none" fill-rule="evenodd">
        <g id="搜索对象-copy" transform="translate(-679.000000, -1067.000000)" fill="#94DCD7" fill-rule="nonzero" stroke="#94DCD7">
            <g id="回到顶部" transform="translate(665.000000, 1052.000000)">
                <g id="搜索" transform="translate(6.000000, 3.000000)">
                    <g id="返回顶部-(3)">
                        <path d="M34.4674315,13.4234493 C34.2110815,13.1522377 33.8629478,13 33.5,13 C33.1370522,13 32.7891118,13.1522377 32.5324397,13.4234493 L22.5618407,23.9532216 C22.0275635,24.5174806 22.0275635,25.4324031 22.5618407,25.9966621 C23.09644,26.5610571 23.9625553,26.5610571 24.4968326,25.9966621 L33.5,16.4886099 L42.5025233,25.9966621 C42.769823,26.2789616 43.120211,26.4201114 43.4702769,26.4201114 C43.8203428,26.4201114 44.1707308,26.2789616 44.4380304,25.9966621 C44.9723077,25.4324031 44.9723077,24.5174806 44.4380304,23.9532216 L34.4674315,13.4234493 Z M9,40.2193884 L14.8527029,40.2193884 L14.8527029,55.999864 L17.5891428,55.999864 L17.5891428,40.2193884 L23.4418458,40.2193884 L23.4418458,37.3297296 L9,37.3297296 L9,40.2193884 Z M37.5342924,37.3297977 L30.2851259,37.3297977 C29.4099933,37.3297977 28.5344743,37.682502 27.8667404,38.3875706 C27.1986845,39.0929793 26.8648498,40.0174252 26.8648498,40.9422113 L26.8648498,52.3872463 C26.8648498,53.3120323 27.1986201,54.2364783 27.8667404,54.941887 C28.5344743,55.6472957 29.4099933,56 30.2851259,56 L37.534228,56 C38.4095538,56 39.2852017,55.6472957 39.9531288,54.941887 C40.6210559,54.2364783 40.9546974,53.3120323 40.9546974,52.3872463 L40.9546974,40.9424833 C40.9546974,40.0173572 40.6210559,39.0932514 39.9531288,38.3875026 C39.2852017,37.682502 38.4096182,37.3297977 37.5342924,37.3297977 Z M38.2185795,52.3871783 C38.2185795,52.5239065 38.1831542,52.7235569 38.0182658,52.8983785 C37.8527332,53.0732001 37.6633692,53.1099331 37.534228,53.1099331 L30.2851259,53.1099331 C30.1559848,53.1099331 29.9672648,53.0732001 29.8017322,52.8983785 C29.6361997,52.7235569 29.6012897,52.5239065 29.6012897,52.3871783 L29.6012897,40.9424833 C29.6012897,40.8057551 29.6361997,40.6061048 29.8017322,40.4312831 C29.9672648,40.2564615 30.1559848,40.2193884 30.2851259,40.2193884 L37.534228,40.2193884 C37.6633692,40.2193884 37.8527332,40.2564615 38.0176217,40.4312831 C38.1831542,40.6061048 38.2185795,40.8057551 38.2185795,40.9424833 L38.2185795,52.3871783 Z M56.9981094,38.3875026 C56.3301823,37.6827741 55.4545344,37.3297296 54.5792086,37.3297296 L45.197635,37.3297296 L45.197635,55.999864 L47.9337529,55.999864 L47.9337529,47.8111369 L54.5792086,47.8111369 C55.4548565,47.8111369 56.3301823,47.4584326 56.9981094,46.7530239 C57.6660365,46.0476152 58,45.1231693 58,44.1987234 L58,40.9420752 C58,40.0173572 57.6660365,39.0932514 56.9981094,38.3875026 Z M55.2635601,44.1987914 C55.2635601,44.3351795 55.2287789,44.5348299 55.0632464,44.7096515 C54.8977138,44.8844731 54.7083498,44.9212061 54.5795306,44.9212061 L47.934397,44.9212061 L47.934397,40.2193884 L54.5795306,40.2193884 C54.7086718,40.2193884 54.8977138,40.2564615 55.0632464,40.4312831 C55.2287789,40.6061048 55.2635601,40.8057551 55.2635601,40.9424833 L55.2635601,44.1987914 Z" id="Shape"></path>
                    </g>
                </g>
            </g>
        </g>
    </g>
</svg>